<svg width="28" height="21" viewBox="0 0 28 21" fill="none" xmlns="http://www.w3.org/2000/svg">
<g clip-path="url(#clip0_101_556)">
<rect x="0.880005" y="0.58667" width="26.2933" height="20.1067" rx="10.0533" fill="#121212" fill-opacity="0.7"/>
<path d="M9.39571 14.2269H10.2113V7.68834H9.40024L7.66024 8.93896V9.7999L9.32321 8.59459H9.39571V14.2269ZM14.1943 7.40287H13.4376L11.3713 15.8582H12.1281L14.1943 7.40287ZM17.1532 14.3357C18.4627 14.3357 19.4234 13.5291 19.4234 12.4371V12.428C19.4234 11.4991 18.7754 10.9055 17.8238 10.824V10.8058C18.6395 10.6336 19.2104 10.0808 19.2104 9.27427V9.26521C19.2104 8.27287 18.3902 7.57959 17.1442 7.57959C15.9207 7.57959 15.0779 8.29099 14.9737 9.35584L14.9692 9.40115H15.7531L15.7576 9.35584C15.8256 8.69427 16.3738 8.28646 17.1442 8.28646C17.9417 8.28646 18.3902 8.68068 18.3902 9.3649V9.37396C18.3902 10.0265 17.8465 10.5068 17.0671 10.5068H16.2832V11.1955H17.1034C18.0187 11.1955 18.5942 11.6441 18.5942 12.4461V12.4552C18.5942 13.1485 18.0096 13.6288 17.1532 13.6288C16.2832 13.6288 15.6896 13.1847 15.6262 12.5413L15.6217 12.496H14.8377L14.8423 12.5504C14.9284 13.5835 15.8029 14.3357 17.1532 14.3357Z" fill="#F9F9F9"/>
</g>
<defs>
<clipPath id="clip0_101_556">
<rect width="26.2933" height="20.1067" fill="white" transform="translate(0.880005 0.58667)"/>
</clipPath>
</defs>
</svg>
